<?xml version="1.0" encoding="UTF-8" standalone="no"?>
<svg
   width="51.979698"
   height="49.559193"
   viewBox="0 0 207.9188 198.23677"
   version="1.1"
   id="svg1"
   sodipodi:docname="coins1.svg"
   xmlns:inkscape="http://www.inkscape.org/namespaces/inkscape"
   xmlns:sodipodi="http://sodipodi.sourceforge.net/DTD/sodipodi-0.dtd"
   xmlns="http://www.w3.org/2000/svg"
   xmlns:svg="http://www.w3.org/2000/svg">
  <defs
     id="defs1" />
  <sodipodi:namedview
     id="namedview1"
     pagecolor="#ffffff"
     bordercolor="#000000"
     borderopacity="0.25"
     inkscape:showpageshadow="2"
     inkscape:pageopacity="0.0"
     inkscape:pagecheckerboard="0"
     inkscape:deskcolor="#d1d1d1"
     showgrid="false" />
  <path
     fill="#000000"
     d="M 43.695757,3.1458335e-8 C 35.409269,3.1458335e-8 27.976556,1.458911 22.959465,3.6043832 c -4.971888,2.1454614 -6.880301,4.5483871 -6.880301,6.2647631 0,1.6734627 1.908413,4.1235867 6.880301,6.2218497 5.017091,2.145473 12.449804,3.647295 20.736292,3.647295 8.286487,0 15.719213,-1.501822 20.691101,-3.647295 5.02211,-2.098263 6.93051,-4.548387 6.93051,-6.2218497 0,-1.716376 -1.9084,-4.1193017 -6.93051,-6.2647631 C 59.41497,1.458911 51.982244,3.1458335e-8 43.695757,3.1458335e-8 Z M 124.04952,13.730981 c -8.28648,0 -15.7192,1.458923 -20.69109,3.604395 -5.022123,2.145462 -6.930523,4.548387 -6.930523,6.264763 0,1.673465 1.9084,4.123588 6.930523,6.221851 4.97189,2.145472 12.40461,3.643007 20.69109,3.643007 2.3102,0 4.51992,-0.128732 6.62921,-0.343274 2.1595,-2.355729 5.22299,-4.445408 8.78869,-5.835678 4.11814,-1.587642 8.88916,-2.874922 12.20374,-3.685906 0,-1.716376 -1.90841,-4.119301 -6.93051,-6.264763 -4.97192,-2.145472 -12.40461,-3.604395 -20.69113,-3.604395 z M 16.079164,21.622012 c -0.200879,6.290515 7.774237,8.85649 12.801364,10.126611 8.98958,2.231282 20.640877,2.231282 29.630458,0 6.428296,-1.570486 12.75616,-4.599883 12.806382,-10.126611 -8.085596,4.561269 -19.887562,5.78848 -27.621611,5.835677 -9.793118,-0.699422 -20.078394,-1.566188 -27.616593,-5.835677 z m 148.147276,8.97235 c -8.28648,0 -15.71922,1.458922 -20.69109,3.643007 -5.02212,2.102551 -6.93052,4.548388 -6.93052,6.221853 0,1.716375 1.9084,4.119301 6.93052,6.264762 4.97187,2.145473 12.40461,3.604383 20.69109,3.604383 8.28648,0 15.71922,-1.45891 20.6911,-3.604383 5.02211,-2.145461 6.9305,-4.548387 6.9305,-6.264762 0,-1.673465 -1.90839,-4.119302 -6.9305,-6.221853 -4.97188,-2.184085 -12.40462,-3.643007 -20.6911,-3.643007 z m -67.798533,4.758644 v 1.029825 c 1.45641,0.429097 2.86261,0.944004 4.168363,1.501832 4.51989,1.93092 8.43715,4.634209 10.44599,8.02405 5.12254,1.072725 10.89798,1.458911 16.52277,1.158546 v -5.964398 c -1.15509,0.04287 -2.31018,0.08585 -3.51551,0.08585 -9.49178,0 -18.12983,-1.587642 -24.759003,-4.419666 -1.00442,-0.429085 -1.95863,-0.901091 -2.86261,-1.415999 z m -80.348743,0.04287 c -0.170751,6.264764 7.794318,8.839331 12.801364,10.12661 3.415033,0.815273 7.231835,1.3731 11.149083,1.544734 1.004429,-2.231284 2.812385,-4.205113 5.122555,-5.878578 C 38.723869,41.317379 32.245339,40.630827 26.36948,39.214817 22.457249,38.227902 18.991994,36.983523 16.079164,35.395879 Z m 59.758099,5.792766 c -8.286488,0 -15.719199,1.501822 -20.691087,3.604383 -5.022123,2.145473 -6.930524,4.548387 -6.930524,6.264764 0,1.716374 1.908401,4.119301 6.930524,6.264773 4.971888,2.145461 12.404599,3.604384 20.691087,3.604384 8.286486,0 15.719213,-1.458923 20.691084,-3.604384 5.022113,-2.145472 6.930513,-4.548399 6.930513,-6.264773 0,-1.716377 -1.9084,-4.119291 -6.930513,-6.264764 C 91.556476,42.69046 84.123749,41.188636 75.837263,41.188638 Z m -59.758099,7.938227 c -0.170751,6.264763 7.794318,8.839332 12.801364,10.12661 3.163932,0.77236 6.67941,1.28728 10.295321,1.501822 V 54.833809 C 34.7564,54.576355 30.437383,53.932715 26.36948,52.945801 22.457249,51.958887 18.991994,50.714508 16.079164,49.126864 Z M 136.60483,52.25926 c -0.10053,6.307672 7.73405,8.83932 12.80638,10.126599 8.98957,2.231293 20.64087,2.231293 29.63045,0 6.3781,-1.587644 12.75617,-4.591298 12.80638,-10.126599 -0.90397,0.471996 -1.85818,0.944003 -2.8626,1.3731 -6.62919,2.83201 -15.2672,4.419655 -24.759,4.419655 -9.49179,0 -18.12982,-1.587645 -24.75902,-4.419655 -1.00442,-0.429097 -1.95863,-0.901104 -2.86259,-1.3731 z m -24.10616,1.802186 v 5.878587 c 4.72078,0.815272 9.994,1.115635 15.06636,0.858182 v -5.921487 c -5.07236,0.214542 -10.19492,-0.04288 -15.06636,-0.815282 z m -64.283018,8.75351 c -0.251101,2.574558 1.104861,4.677119 2.762162,5.921487 2.109293,1.544742 5.524325,3.132387 10.044233,4.248033 8.989568,2.188372 20.640866,2.188372 29.630446,0 4.519907,-1.115646 7.934924,-2.703291 10.044217,-4.248033 2.46082,-1.759276 2.76215,-3.475651 2.76215,-5.921487 -0.90398,0.514917 -1.85817,0.986914 -2.86259,1.41601 -6.629179,2.832012 -15.267213,4.419667 -24.759007,4.419667 -9.491783,0 -18.129816,-1.587655 -24.759004,-4.419667 -1.004416,-0.429096 -1.958623,-0.901093 -2.862607,-1.41601 z m -32.136488,0.04286 c -0.170751,6.264763 7.794318,8.839331 12.801364,10.12661 3.163932,0.772362 6.67941,1.287279 10.295321,1.501822 v -5.92149 C 34.7564,68.307305 30.437383,67.663666 26.36948,66.676751 22.457249,65.689836 18.991994,64.445457 16.079164,62.857814 Z m 120.525666,3.132388 c -0.10053,6.307673 7.73405,8.839321 12.80638,10.126599 8.98957,2.231294 20.64087,2.231294 29.63045,0 6.3781,-1.587642 12.75617,-4.591297 12.80638,-10.126599 -2.91281,1.587644 -6.37808,2.832012 -10.29533,3.818926 -10.89798,2.70329 -23.75458,2.70329 -34.65256,0 -3.91725,-0.986914 -7.38251,-2.231282 -10.29532,-3.818926 z m -24.10616,1.802186 v 5.878587 c 4.72078,0.815273 9.994,1.115637 15.06636,0.858184 v -5.921488 c -5.07236,0.214543 -10.19492,-0.04287 -15.06636,-0.815283 z m -96.419506,8.796421 c -0.170751,6.264762 7.794318,8.83933 12.801364,10.126617 3.163932,0.772355 6.67941,1.28728 10.295321,1.501819 V 82.295756 C 34.7564,82.038302 30.437383,81.394664 26.36948,80.407748 22.457249,79.420822 18.991994,78.176455 16.079164,76.588811 Z m 32.136488,0 c -0.251101,2.574558 1.104861,4.634208 2.762162,5.878577 2.109293,1.544746 5.524325,3.132386 10.044233,4.24804 8.989568,2.18837 20.640866,2.18837 29.630446,0 4.519907,-1.115654 7.934924,-2.703294 10.044217,-4.24804 2.46082,-1.759276 2.76215,-3.432752 2.76215,-5.878577 -2.91282,1.587643 -6.378063,2.83201 -10.295307,3.818936 -10.897981,2.66038 -23.754585,2.66038 -34.652567,0 -3.917247,-0.986926 -7.382504,-2.231293 -10.295334,-3.818936 z m 88.389178,3.132375 c -0.10053,6.307684 7.73405,8.839337 12.80638,10.126617 8.98957,2.231292 20.64087,2.231292 29.63045,0 6.3781,-1.58764 12.75617,-4.591304 12.80638,-10.126617 -2.91281,1.587656 -6.37808,2.832024 -10.29533,3.818937 -10.89798,2.703295 -23.75458,2.703295 -34.65256,0 -3.91725,-0.986913 -7.38251,-2.231281 -10.29532,-3.818937 z m -24.10616,1.802197 v 5.878596 c 4.72078,0.815268 9.994,1.115637 15.06636,0.858184 v -5.921497 c -5.07236,0.214544 -10.19492,-0.04287 -15.06636,-0.815283 z m -64.283018,8.79643 v 0.986911 c 1.456421,0.429095 2.862607,0.944004 4.168361,1.501827 4.519895,1.930924 8.437142,4.634219 10.44599,8.024049 8.688244,1.8022 19.435569,1.67346 27.82249,-0.38617 4.519907,-1.11565 7.934924,-2.7033 10.044217,-4.248043 2.46082,-1.759274 2.76215,-3.432734 2.76215,-5.878574 -2.91282,1.58764 -6.378063,2.832013 -10.295307,3.818924 -10.897981,2.660383 -23.754585,2.660383 -34.652567,0 -3.917247,-0.986911 -7.382504,-2.231284 -10.295334,-3.818924 z m 88.389178,3.132373 c -0.10053,6.307694 7.73405,8.839334 12.80638,10.126614 8.98957,2.23129 20.64087,2.23129 29.63045,0 6.3781,-1.58764 12.75617,-4.59129 12.80638,-10.126614 -2.91281,1.587657 -6.37808,2.832022 -10.29533,3.818944 -10.89798,2.70329 -23.75458,2.70329 -34.65256,0 -3.91725,-0.986922 -7.38251,-2.231287 -10.29532,-3.818944 z m -24.10616,1.802197 v 5.878587 c 4.72078,0.81529 9.994,1.11565 15.06636,0.85819 v -5.921491 c -5.07236,0.214539 -10.19492,-0.04288 -15.06636,-0.815286 z m -84.873673,0.858192 c -8.281457,0 -15.714183,1.501835 -20.7362929,3.604395 -4.9718874,2.14546 -6.88028798,4.54839 -6.88028798,6.26476 0,1.71638 1.90840058,4.11929 6.88028798,6.26476 5.0221099,2.14547 12.4548359,3.60439 20.7362929,3.60439 8.286489,0 15.719212,-1.45892 20.691101,-3.60439 5.02211,-2.14547 6.93051,-4.54838 6.93051,-6.26476 0,-1.71637 -1.9084,-4.1193 -6.93051,-6.26476 -4.971889,-2.10256 -12.404612,-3.604395 -20.691101,-3.604395 z m 75.833863,7.938235 c -2.91282,1.58764 -6.378063,2.83202 -10.295307,3.81893 -9.039804,2.18838 -19.385346,2.57457 -28.877142,1.11565 v 5.87857 c 8.437143,1.50183 18.431153,1.24438 26.366082,-0.68655 6.327854,-1.58764 12.756167,-4.63422 12.806367,-10.1266 z m 33.14597,3.13238 c -0.15067,6.09312 7.3825,8.7106 12.35439,9.99788 2.81238,-1.93092 5.37365,-3.38984 8.38691,-4.46257 -3.6159,-0.34327 -7.13138,-0.90111 -10.44598,-1.71637 -3.91725,-0.98692 -7.38251,-2.23129 -10.29532,-3.81894 z m 55.24321,0 c -1.40618,0.77237 -2.96302,1.45891 -4.67055,2.10256 1.55685,0.12873 3.1137,0.30037 4.57012,0.5149 0.20089,-0.85818 0.10053,-1.71636 0.10053,-2.61746 z m -79.34937,1.8022 v 5.83566 c 5.47409,0.9011 10.04421,1.11565 15.06636,0.94402 v -5.96442 c -5.07236,0.21456 -10.19492,-0.0429 -15.06636,-0.81526 z m 67.79853,7.72368 c -8.2865,0 -15.71923,1.50182 -20.6911,3.60438 -5.0221,2.14547 -6.93053,4.54839 -6.93053,6.26476 0,1.71638 1.90843,4.11931 6.93053,6.26477 4.97187,2.14547 12.4046,3.60439 20.6911,3.60439 8.28647,0 15.7192,-1.45892 20.6911,-3.60439 5.02211,-2.14546 6.9305,-4.54839 6.9305,-6.26477 0,-1.71637 -1.90839,-4.11929 -6.9305,-6.26476 -4.9719,-2.10256 -12.40463,-3.60438 -20.6911,-3.60438 z M 0.00841612,117.7389 c -0.1456504,6.35057 7.68884398,8.88222 12.80638188,10.1695 8.989581,2.1884 20.635848,2.1884 29.625428,0 6.378087,-1.58764 12.75616,-4.63421 12.806382,-10.1695 -0.903971,0.5149 -1.858177,0.98691 -2.862595,1.41599 -6.629187,2.83202 -15.267221,4.41967 -24.759016,4.41967 C 17.776639,122.88801 7.5968271,122.02983 0.00841612,117.7389 Z M 103.45886,117.7818 c -2.91282,1.58764 -6.378063,2.832 -10.295307,3.81892 -9.039804,2.18838 -19.385346,2.57456 -28.877142,1.11565 v 5.87858 c 8.437143,1.50183 18.431153,1.24436 26.366082,-0.68655 6.327854,-1.58765 12.756167,-4.63421 12.806367,-10.1266 z m 33.14597,3.13236 c -0.2009,4.41967 4.01768,6.90841 6.93052,8.1957 0,0 0.0502,0.0429 0.10052,0.0429 V 123.832 c -2.61151,-0.81528 -4.9719,-1.80218 -7.03096,-2.91784 z M 0.00841612,131.51274 c -0.170762,6.26478 7.79430698,8.83934 12.80638188,10.12662 8.989581,2.18837 20.635848,2.18837 29.625428,0 6.327864,-1.58765 12.75616,-4.63422 12.806382,-10.12662 -2.912818,1.58766 -6.378073,2.83203 -10.29532,3.81894 -10.897981,2.66038 -23.749569,2.66038 -34.647551,0 -3.9172469,-0.98691 -7.3825021,-2.23128 -10.29532088,-3.81894 z m 64.27799488,4.93459 v 5.83566 c 2.460839,0.47202 5.122557,0.77238 7.884718,0.94401 1.004417,-2.2742 2.812373,-4.24803 5.122556,-5.92149 -4.36924,0.0858 -8.788703,-0.21455 -13.007274,-0.85818 z m 43.692359,0.85818 c -8.286503,0 -15.719201,1.50183 -20.691084,3.60439 -5.022114,2.14547 -6.930515,4.54838 -6.930515,6.26475 0,1.71638 1.908401,4.11932 6.930515,6.26479 4.971883,2.14546 12.404581,3.60437 20.691084,3.60437 8.28648,0 15.71921,-1.45891 20.69111,-3.60437 5.02212,-2.14547 6.93052,-4.54841 6.93052,-6.26479 0,-1.71637 -1.9084,-4.11928 -6.93052,-6.26475 -4.9719,-2.10256 -12.40463,-3.60439 -20.69111,-3.60439 z m 44.6968,1.02983 c -0.0502,6.35058 7.63362,8.88223 12.8064,10.16952 8.98958,2.18837 20.64087,2.18837 29.63046,0 6.37807,-1.58766 12.75615,-4.63422 12.80637,-10.16952 -7.93493,4.11929 -19.93778,5.79276 -27.6216,5.83566 -9.84334,-0.68653 -20.03824,-1.54472 -27.62163,-5.83566 z m -152.66715388,6.9084 c -0.170762,6.26475 7.79430698,8.83933 12.80638188,10.12661 8.989581,2.18838 20.635848,2.18838 29.625428,0 6.327864,-1.58765 12.75616,-4.63421 12.806382,-10.12661 -2.912818,1.58764 -6.378073,2.83203 -10.29532,3.81893 -10.897981,2.66039 -23.749569,2.66039 -34.647551,0 -3.9172469,-0.9869 -7.3825021,-2.23129 -10.29532088,-3.81893 z M 152.67557,152.10925 c -0.10053,6.30766 7.73406,8.83931 12.8064,10.12659 8.98958,2.18838 20.64087,2.18838 29.63046,0 6.32787,-1.58764 12.75615,-4.63421 12.80637,-10.12659 -2.91282,1.58763 -6.37808,2.832 -10.29533,3.81892 -10.89798,2.66038 -23.75459,2.66038 -34.65256,0 -3.91726,-0.98692 -7.3825,-2.23129 -10.29534,-3.81892 z m -72.318399,6.82257 c -0.251113,2.57456 1.104863,4.67712 2.76216,5.92148 2.109281,1.54475 5.524315,3.13239 10.044222,4.24804 8.989567,2.18837 20.640867,2.18837 29.630447,0 4.51991,-1.11565 7.93496,-2.70329 10.04423,-4.24804 2.10929,-1.54472 2.76217,-2.87493 2.76217,-3.94766 v -1.97382 c -0.90399,0.51492 -1.85818,0.98692 -2.86259,1.41601 -6.6292,2.83202 -15.26725,4.41967 -24.75904,4.41967 -9.491813,0 -18.129816,-1.58765 -24.759004,-4.41967 -1.004417,-0.42909 -1.958623,-0.90109 -2.862595,-1.41601 z m -80.34875488,0.0429 c -0.170762,6.26477 7.79430698,8.83934 12.80638188,10.12662 8.989581,2.18837 20.635848,2.18837 29.625428,0 6.327864,-1.58766 12.75616,-4.63422 12.806382,-10.12662 -2.912818,1.58765 -6.378073,2.83203 -10.29532,3.81894 -10.897981,2.66038 -23.749569,2.66038 -34.647551,0 -3.9172469,-0.98691 -7.3825021,-2.23129 -10.29532088,-3.81894 z M 152.67557,165.84023 c -0.10053,6.30769 7.73406,8.83934 12.8064,10.12661 8.98958,2.18839 20.64087,2.18839 29.63046,0 6.32787,-1.58763 12.75615,-4.63421 12.80637,-10.12661 -2.91282,1.58766 -6.37808,2.83203 -10.29533,3.81895 -10.89798,2.66037 -23.75459,2.66037 -34.65256,0 -3.91726,-0.98692 -7.3825,-2.23129 -10.29534,-3.81895 z M 0.00841612,172.70571 c -0.170762,6.26476 7.79430698,8.83931 12.80638188,10.12661 8.989581,2.18837 20.635848,2.18837 29.625428,0 6.327864,-1.58766 12.75616,-4.63422 12.806382,-10.12661 -2.912818,1.58764 -6.378073,2.83201 -10.29532,3.81892 -10.897981,2.66038 -23.749569,2.66038 -34.647551,0 -3.9172469,-0.98691 -7.3825021,-2.23128 -10.29532088,-3.81892 z m 80.34875488,0 c -0.200891,4.41968 4.017675,6.9084 6.930515,8.19568 4.971883,2.14547 12.404581,3.60439 20.691084,3.60439 8.28648,0 15.71921,-1.45892 20.69111,-3.60439 4.97189,-2.66038 6.93052,-3.69021 6.93052,-8.19568 -2.91283,1.58764 -6.37807,2.83201 -10.29533,3.81892 -10.898,2.66038 -23.75461,2.66038 -34.652577,0 -3.917249,-0.98691 -7.38251,-2.23128 -10.295322,-3.81892 z m 72.318399,6.86549 c -0.20088,4.41966 4.0177,6.90842 6.93053,8.19569 4.97187,2.14546 12.4046,3.60438 20.6911,3.60438 8.28647,0 15.7192,-1.45892 20.6911,-3.60438 4.97187,-2.66038 6.9305,-3.6902 6.9305,-8.19569 -2.91282,1.58765 -6.37808,2.83201 -10.29533,3.81894 -10.89798,2.66037 -23.75459,2.66037 -34.65256,0 -3.91726,-0.98693 -7.3825,-2.23129 -10.29534,-3.81894 z M 0.00841612,186.4367 c -0.2209717,4.37676 3.95742288,6.90841 6.88028798,8.19568 5.0221099,2.14547 12.4548359,3.60439 20.7362929,3.60439 8.286489,0 15.719212,-1.45892 20.691101,-3.60439 4.971887,-2.66037 6.93051,-3.6902 6.93051,-8.19568 -2.912818,1.58765 -6.378073,2.83202 -10.29532,3.81893 -10.897981,2.66038 -23.749569,2.66038 -34.647551,0 -3.9172469,-0.98691 -7.3825021,-2.23128 -10.29532088,-3.81893 z"
     id="path1"
     style="fill:#ffffff;fill-opacity:1;stroke-width:0.464215"
     inkscape:export-filename="../devel/personal/dakka/priv/static/images/coins.svg"
     inkscape:export-xdpi="482.44974"
     inkscape:export-ydpi="482.44974"
     inkscape:transform-center-x="-5.1804106" />
</svg>
