<?xml version="1.0" encoding="UTF-8" standalone="no"?>
<svg
   viewBox="0 0 50.803185 52.572598"
   version="1.1"
   id="svg1"
   width="50.803185"
   height="52.572598"
   xmlns="http://www.w3.org/2000/svg"
   xmlns:svg="http://www.w3.org/2000/svg">
  <defs
     id="defs1" />
  <g
     class=""
     transform="matrix(1.2822207,0,0,1.3315628,-79.871719,-86.116641)"
     id="g1"
     style="display:inline">
    <path
       d="m 73.096533,65.003194 c -1.017926,-0.003 -1.970725,0.239427 -3.027793,0.788938 h 3.25e-4 c -3.915789,2.037143 -7.276935,7.573611 -7.438049,12.19272 l 3.398339,1.191779 C 66.38098,73.995454 69.8507,68.43002 74.27403,66.12867 h 1.63e-4 c 0.359178,-0.186686 0.716405,-0.348425 1.070711,-0.485552 l -1.807662,-0.623684 c -0.148609,-0.0103 -0.29535,-0.01591 -0.44079,-0.01624 z m 4.818807,1.690224 c -0.850884,-0.0075 -1.854112,0.258933 -2.957873,0.832387 l 3.24e-4,-3.3e-4 c -3.9166,2.037641 -7.278153,7.577373 -7.434313,12.175302 l 12.707635,4.457034 c 0.313863,-5.208803 3.80023,-10.830493 8.251659,-13.146327 h 1.62e-4 l 1.62e-4,-2.06e-4 c 0.349433,-0.181496 0.69708,-0.339552 1.042045,-0.474335 L 78.599588,66.766669 c -0.21536,-0.04537 -0.443226,-0.07091 -0.684329,-0.07308 z m 14.208741,4.882563 c -0.850722,-0.0075 -1.853949,0.258849 -2.957549,0.832135 l -4.06e-4,2.07e-4 c -3.944779,2.052546 -7.326877,7.657744 -7.437399,12.274676 l 3.752157,1.316015 c 0.317843,-5.206125 3.802505,-10.82229 8.251172,-13.1367 0.367216,-0.191124 0.734109,-0.356463 1.098726,-0.494761 l -2.15555,-0.743732 c -0.175732,-0.0293 -0.359178,-0.04604 -0.550988,-0.04772 z m 5.161013,1.842921 c -0.833749,0.0078 -1.794182,0.2807 -2.869277,0.840005 -3.829547,1.992439 -7.128084,7.332426 -7.41921,11.866731 l 14.174633,-6.172039 c -0.0327,-3.265758 -0.8733,-5.13212 -1.982661,-5.950694 -0.190592,-0.140643 -0.395233,-0.255919 -0.61311,-0.346333 l -8.12e-4,0.0028 -0.384515,-0.132605 c -0.282599,-0.07426 -0.584282,-0.111092 -0.904967,-0.107994 z m -34.660737,6.216157 -0.0028,15.695394 3.377794,1.211704 V 80.81897 L 62.6244,79.635227 Z m 4.892705,1.716009 v 15.735409 l 12.691151,4.551633 V 85.802076 l -2.3593,-0.827615 v 9.99819 L 69.642648,92.119445 V 82.096558 Z m 33.637448,0.308327 -14.124851,6.150355 v 15.84206 L 101.15435,97.49836 V 81.65931 Z m -29.994026,0.969597 v 8.367153 l 5.170838,1.797967 v -8.35175 l -5.170758,-1.813454 z m 2.542257,2.410766 c 0.788111,0 1.427046,0.658594 1.427046,1.471057 0,0.530758 -0.273667,0.994545 -0.682705,1.253227 v 2.388415 h -1.517754 v -2.406498 c -0.392877,-0.26203 -0.653552,-0.716776 -0.653552,-1.235144 0,-0.812463 0.638854,-1.471057 1.426965,-1.471057 z m 8.022982,1.294583 v 15.848009 l 3.786344,1.35787 V 87.662411 l -3.786426,-1.32807 z"
       fill="#ffffff"
       fill-opacity="1"
       stroke="#000000"
       stroke-opacity="1"
       stroke-width="0.659613"
       id="path1" />
  </g>
</svg>
