<?xml version="1.0" encoding="UTF-8" standalone="no"?>
<svg
   width="82.202835"
   height="126.46511"
   viewBox="0 0 30.826063 47.424417"
   version="1.1"
   id="svg2"
   sodipodi:docname="skeleton.svg"
   xmlns:inkscape="http://www.inkscape.org/namespaces/inkscape"
   xmlns:sodipodi="http://sodipodi.sourceforge.net/DTD/sodipodi-0.dtd"
   xmlns="http://www.w3.org/2000/svg"
   xmlns:svg="http://www.w3.org/2000/svg">
  <defs
     id="defs2" />
  <sodipodi:namedview
     id="namedview2"
     pagecolor="#ffffff"
     bordercolor="#000000"
     borderopacity="0.25"
     inkscape:showpageshadow="2"
     inkscape:pageopacity="0.0"
     inkscape:pagecheckerboard="0"
     inkscape:deskcolor="#d1d1d1" />
  <g
     fill="#ffffff"
     id="g2"
     style="fill:#ffffff"
     transform="matrix(1.1856178,0,0,1.1856178,-13.041796,-4.7427676)">
    <path
       d="m 23,14 a 2,2 0 1 1 -4,0 2,2 0 0 1 4,0 z m 4,2 a 2,2 0 1 0 0,-4 2,2 0 0 0 0,4 z"
       id="path1"
       style="fill:#ffffff" />
    <path
       fill-rule="evenodd"
       d="m 16.615,17.348 c 0,2.035 1.385,2.487 1.847,2.487 0.461,0 0.615,1.356 0.615,2.26 0,0.776 1.921,0.887 3.923,0.902 V 24.5 h -6.5 c -2.892,0 -4.268,2.146 -4.883,3.923 A 11.705,11.705 0 0 0 11.077,30.87 12.397,12.397 0 0 0 11,31.97 V 32 a 1,1 0 0 0 2,0 v -0.05 l 0.008,-0.18 c 0.007,-0.16 0.023,-0.391 0.056,-0.671 a 9.72,9.72 0 0 1 0.444,-2.022 C 14.018,27.603 14.892,26.5 16.5,26.5 H 23 v 1.209 c -0.834,0.047 -1.65,0.156 -2.365,0.33 -0.5,0.121 -0.98,0.282 -1.392,0.495 -0.401,0.206 -0.82,0.502 -1.091,0.936 a 1.000002,1.000002 0 0 0 1.696,1.06 c 0,0 0.015,-0.023 0.066,-0.065 0.052,-0.042 0.13,-0.095 0.244,-0.153 a 4.42,4.42 0 0 1 0.95,-0.33 11.32,11.32 0 0 1 1.892,-0.27 v 1.997 c -0.834,0.047 -1.65,0.156 -2.365,0.33 -0.5,0.121 -0.98,0.282 -1.392,0.495 -0.401,0.206 -0.82,0.502 -1.091,0.936 a 1.000002,1.000002 0 0 0 1.696,1.06 c 0,0 0.015,-0.023 0.066,-0.065 0.052,-0.042 0.13,-0.095 0.244,-0.153 a 4.42,4.42 0 0 1 0.95,-0.33 A 11.32,11.32 0 0 1 23,33.712 V 36 h -4 c -1.108,0 -1.939,0.527 -2.513,1.24 -0.549,0.68 -0.876,1.538 -1.08,2.32 C 15,41.122 15,42.723 15,42.996 V 43 a 1,1 0 1 0 2,0 c 0,-0.241 0.002,-1.63 0.343,-2.935 0.17,-0.656 0.406,-1.204 0.701,-1.57 C 18.314,38.16 18.608,38 19,38 h 10 c 0.392,0 0.686,0.16 0.956,0.495 0.295,0.366 0.53,0.914 0.701,1.57 C 30.997,41.37 31,42.759 31,43 a 1,1 0 1 0 2,0 V 42.996 C 33,42.723 33,41.122 32.593,39.56 32.389,38.778 32.062,37.92 31.513,37.24 30.939,36.527 30.108,36 29,36 h -4 v -2.287 c 0.692,0.044 1.344,0.136 1.892,0.27 0.403,0.097 0.722,0.212 0.95,0.33 0.113,0.057 0.192,0.11 0.244,0.152 0.05,0.042 0.066,0.065 0.066,0.065 a 1.000002,1.000002 0 0 0 1.696,-1.06 c -0.271,-0.434 -0.69,-0.73 -1.09,-0.936 A 6.37,6.37 0 0 0 27.365,32.039 13.404,13.404 0 0 0 25,31.709 v -1.996 c 0.692,0.044 1.344,0.136 1.892,0.27 0.403,0.097 0.722,0.212 0.95,0.33 0.113,0.057 0.192,0.11 0.244,0.152 0.05,0.042 0.066,0.065 0.066,0.065 a 1.000002,1.000002 0 0 0 1.696,-1.06 c -0.271,-0.434 -0.69,-0.73 -1.09,-0.936 A 6.37,6.37 0 0 0 27.365,28.039 13.404,13.404 0 0 0 25,27.709 V 26.5 h 6.5 c 1.608,0 2.482,1.104 2.992,2.577 a 9.72,9.72 0 0 1 0.444,2.022 10.33,10.33 0 0 1 0.064,0.893 v 0.01 A 1.0000005,1.0000005 0 0 0 37,32 h -1 c 1,0 1,-0.002 1,-0.002 V 31.97 L 36.999,31.919 V 31.904 A 12.397,12.397 0 0 0 36.923,30.87 11.705,11.705 0 0 0 36.383,28.423 C 35.768,26.647 34.393,24.5 31.5,24.5 H 25 v -1.503 c 2.002,-0.015 3.923,-0.126 3.923,-0.901 0,-0.905 0.577,-2.261 0.616,-2.261 0.038,0 1.846,-0.453 1.846,-2.487 0,-0.805 0.252,-1.186 0.558,-1.646 C 32.41,15 33,14.112 33,11.243 c 0,-9.657 -18,-9.657 -18,0 0,2.87 0.59,3.757 1.057,4.46 0.306,0.46 0.558,0.84 0.558,1.645 z m 2.08,0.498 a 0.302,0.302 0 0 1 -0.01,-0.021 c -0.023,-0.054 -0.07,-0.198 -0.07,-0.477 0,-1.484 -0.657,-2.43 -0.968,-2.877 A 3.415,3.415 0 0 1 17.527,14.29 C 17.353,13.998 17,13.359 17,11.243 17,9.542 17.756,8.31 18.976,7.437 20.256,6.522 22.074,6 24,6 25.926,6 27.745,6.522 29.024,7.437 30.244,8.31 31,9.542 31,11.243 c 0,2.116 -0.353,2.755 -0.526,3.047 -0.028,0.046 -0.07,0.107 -0.121,0.18 -0.31,0.447 -0.968,1.394 -0.968,2.878 0,0.2 -0.042,0.293 -0.06,0.327 a 0.374,0.374 0 0 1 -0.103,0.12 0.703,0.703 0 0 1 -0.16,0.096 l -0.006,0.003 a 1.996,1.996 0 0 0 -1.042,0.644 2.102,2.102 0 0 0 -0.301,0.461 4.89,4.89 0 0 0 -0.13,0.286 9.756,9.756 0 0 0 -0.517,1.619 C 26.271,20.997 25.184,21 24,21 22.854,21 21.799,20.997 21.01,20.913 A 7.516,7.516 0 0 0 20.899,20.21 4.04,4.04 0 0 0 20.496,19.082 c -0.171,-0.306 -0.722,-1.13 -1.802,-1.236 z"
       clip-rule="evenodd"
       id="path2"
       style="fill:#ffffff" />
  </g>
</svg>
